<svg width="378" height="124" viewBox="0 0 378 124" fill="none" xmlns="http://www.w3.org/2000/svg">
<g clip-path="url(#clip0_30_543)">
<path d="M92.3844 84.0497V80.8934L102.104 78.7448V5.92736L92.3844 3.79352V0.637207H120.797V3.79352L109.616 5.92736V79.6339H143.363L149.209 57.2581H151.709V84.0497H92.3844Z" fill="#2B2F3C"/>
<path d="M168.546 84.0497V80.8934L178.309 78.7448V5.92736L168.575 3.7787V0.637207H195.511V3.79352L185.748 5.92736V78.7448L195.482 80.8934V84.0497H168.546Z" fill="#2B2F3C"/>
<path d="M72.6827 79.2486L41.011 0H39.7249L39.8272 16.7596L51.9872 48.0263L40.0318 50.249L53.7265 52.457L64.2058 79.2486L53.6096 80.8934V84.0645H80.1659V80.8934L72.6827 79.2486Z" fill="#2B2F3C"/>
<path d="M14.4547 78.3744L19.4093 57.0952L10.0993 78.3744L0 81.5307V84.0646H24.8025V81.5307L14.4547 78.3744Z" fill="#2B2F3C"/>
<path d="M370.517 79.2486L338.845 0H337.559L337.661 16.7596L349.821 48.0263L337.851 50.249L351.561 52.457L362.04 79.2486L351.444 80.8934V84.0645H378V80.8934L370.517 79.2486Z" fill="#2B2F3C"/>
<path d="M312.289 78.3744L317.243 57.0952L307.933 78.3744L297.834 81.5307V84.0646H322.637V81.5307L312.289 78.3744Z" fill="#2B2F3C"/>
<path d="M226.759 78.3741L224.713 55.7168L222.404 78.3741L212.304 81.5304V84.0643H237.121V81.5304L226.759 78.3741Z" fill="#2B2F3C"/>
<path d="M265.432 0.637207V3.79352L276.159 5.94218V70.402L225.414 0.637207L225.824 13.9885L278.147 84.6869H280.895V5.94218L290.614 3.79352V0.637207H265.432Z" fill="#2B2F3C"/>
<path d="M36.9625 119.347V107.107H38.2633V117.48L47.9095 107.107H49.0495V119.347H47.7487V108.974L38.1025 119.347H36.9625Z" fill="#2B2F3C"/>
<path d="M54.8226 119.065C53.9177 118.822 53.0652 118.41 52.3088 117.85L52.8057 116.976C53.4907 117.491 54.2637 117.873 55.0857 118.102C55.9278 118.339 56.7988 118.454 57.6727 118.443C58.4616 118.459 59.2475 118.339 59.9965 118.087C60.5891 117.883 61.1218 117.532 61.5458 117.065C61.8939 116.699 62.0879 116.21 62.0865 115.702C62.0666 115.361 61.9554 115.031 61.7648 114.749C61.5743 114.467 61.3116 114.243 61.005 114.101C60.0962 113.652 59.092 113.439 58.0819 113.479H55.8457V112.619H57.965C58.6305 112.614 59.2911 112.504 59.9234 112.293C60.4249 112.157 60.883 111.892 61.2534 111.523C61.4076 111.371 61.5298 111.189 61.6127 110.988C61.6956 110.786 61.7375 110.57 61.7358 110.352C61.7382 110.108 61.6885 109.867 61.5901 109.644C61.4917 109.422 61.3469 109.224 61.1657 109.063C60.746 108.689 60.2454 108.42 59.7042 108.278C59.0158 108.105 58.3088 108.02 57.5996 108.026C56.8949 108.042 56.194 108.137 55.5096 108.307C54.7767 108.482 54.0658 108.741 53.3903 109.078L52.908 108.174C53.6415 107.799 54.4169 107.516 55.2173 107.329C55.9878 107.138 56.777 107.033 57.5703 107.018C58.5 106.99 59.4281 107.115 60.3181 107.389C61.0533 107.588 61.7302 107.964 62.2911 108.485C62.5237 108.705 62.7088 108.971 62.8346 109.267C62.9604 109.563 63.0242 109.882 63.0219 110.204C63.0274 110.496 62.9761 110.787 62.8707 111.059C62.7654 111.331 62.6082 111.579 62.4081 111.79C61.9503 112.272 61.3834 112.633 60.7565 112.842C59.9986 113.1 59.2029 113.225 58.4034 113.212L58.5057 112.842C59.7651 112.767 61.0202 113.049 62.1304 113.657C62.5191 113.876 62.8432 114.196 63.0693 114.584C63.2953 114.972 63.4152 115.414 63.4165 115.865C63.4194 116.223 63.351 116.578 63.2154 116.909C63.0798 117.24 62.8798 117.54 62.6273 117.791C62.0473 118.376 61.3347 118.809 60.5519 119.051C59.6079 119.359 58.6206 119.509 57.6288 119.495C56.6787 119.48 55.7348 119.335 54.8226 119.065Z" fill="#2B2F3C"/>
<path d="M71.9374 119.302L72.0689 118.295H72.3905C72.4923 118.308 72.5955 118.308 72.6974 118.295C72.9695 118.316 73.2428 118.274 73.4962 118.171C73.7496 118.068 73.9763 117.908 74.1589 117.702C74.5306 117.231 74.7996 116.686 74.9482 116.102C75.1376 115.353 75.2648 114.59 75.3282 113.82C75.4159 112.975 75.4743 112.116 75.5328 111.241L75.7666 107.018H85.2521V119.258H83.8928V107.7L84.2582 108.07H76.5266L76.8628 107.67L76.6582 111.33C76.5851 112.397 76.4974 113.42 76.3805 114.383C76.281 115.293 76.095 116.191 75.8251 117.065C75.6375 117.739 75.2798 118.352 74.7874 118.843C74.5558 119.06 74.2841 119.228 73.988 119.337C73.692 119.446 73.3775 119.495 73.0628 119.48H72.522L71.9374 119.302Z" fill="#2B2F3C"/>
<path d="M90.7913 119.347V107.107H92.0775V112.619H96.2283V113.701H92.0775V119.377L90.7913 119.347ZM102.118 119.451C100.941 119.469 99.7763 119.194 98.7275 118.65C97.741 118.147 96.9153 117.37 96.3463 116.41C95.7772 115.45 95.488 114.347 95.5121 113.227C95.4908 112.11 95.7813 111.009 96.3502 110.052C96.9191 109.095 97.7432 108.321 98.7275 107.818C99.7877 107.292 100.953 107.019 102.133 107.019C103.313 107.019 104.478 107.292 105.538 107.818C106.52 108.323 107.341 109.098 107.907 110.055C108.473 111.012 108.762 112.111 108.739 113.227C108.756 114.36 108.457 115.474 107.877 116.442C107.308 117.379 106.5 118.142 105.538 118.65C104.481 119.199 103.306 119.474 102.118 119.451ZM102.118 118.413C103.073 118.427 104.016 118.203 104.866 117.761C105.629 117.329 106.261 116.694 106.693 115.924C107.165 115.107 107.403 114.173 107.38 113.227C107.403 112.276 107.166 111.337 106.693 110.515C106.243 109.75 105.59 109.128 104.808 108.722C103.959 108.293 103.023 108.069 102.074 108.069C101.126 108.069 100.19 108.293 99.3414 108.722C98.5552 109.128 97.897 109.749 97.4414 110.515C96.9687 111.337 96.7308 112.276 96.7544 113.227C96.7312 114.173 96.9692 115.107 97.4414 115.924C97.9068 116.709 98.5803 117.345 99.3852 117.761C100.23 118.201 101.169 118.424 102.118 118.413Z" fill="#2B2F3C"/>
<path d="M118.897 119.466C117.898 119.495 116.904 119.318 115.974 118.947C115.157 118.631 114.426 118.123 113.84 117.465C113.236 116.722 112.793 115.859 112.539 114.931C112.205 113.817 112.047 112.657 112.071 111.493C112.063 110.369 112.221 109.251 112.539 108.174C112.774 107.344 113.15 106.561 113.65 105.862C114.08 105.253 114.609 104.722 115.214 104.292C115.783 103.899 116.397 103.576 117.041 103.328C117.652 103.086 118.283 102.898 118.926 102.765L124.904 101.476L125.123 102.587L119.408 103.788L117.947 104.143C117.386 104.306 116.847 104.534 116.339 104.825C115.788 105.162 115.294 105.587 114.878 106.085C114.386 106.702 114.01 107.405 113.767 108.159C113.461 109.182 113.318 110.247 113.343 111.315C113.334 111.503 113.334 111.691 113.343 111.879C113.343 112.012 113.343 112.16 113.343 112.323C113.343 112.486 113.343 112.738 113.431 113.049L112.846 112.768C112.981 111.783 113.38 110.855 114.001 110.086C114.577 109.297 115.341 108.67 116.222 108.263C117.197 107.806 118.261 107.578 119.335 107.596C120.497 107.575 121.648 107.829 122.697 108.337C123.635 108.796 124.429 109.509 124.991 110.397C125.549 111.325 125.844 112.392 125.844 113.479C125.844 114.566 125.549 115.632 124.991 116.561C124.407 117.482 123.582 118.22 122.609 118.695C121.45 119.249 120.177 119.513 118.897 119.466ZM119.116 118.458C120.074 118.478 121.023 118.26 121.878 117.821C122.658 117.412 123.31 116.79 123.759 116.025C124.208 115.261 124.438 114.384 124.421 113.494C124.443 112.606 124.21 111.73 123.749 110.975C123.288 110.247 122.642 109.658 121.878 109.271C121.006 108.853 120.051 108.645 119.087 108.663C118.132 108.64 117.185 108.848 116.325 109.271C115.552 109.643 114.898 110.228 114.439 110.96C113.979 111.71 113.745 112.581 113.767 113.464C113.755 114.362 113.993 115.246 114.454 116.013C114.918 116.772 115.574 117.391 116.354 117.806C117.208 118.25 118.156 118.474 119.116 118.458Z" fill="#2B2F3C"/>
<path d="M130.078 119.347V107.107H135.778C137.002 107.043 138.22 107.32 139.3 107.907C139.707 108.136 140.044 108.474 140.273 108.885C140.503 109.295 140.616 109.762 140.601 110.234C140.616 110.692 140.507 111.146 140.285 111.546C140.064 111.946 139.738 112.276 139.344 112.501C138.348 113.057 137.22 113.323 136.085 113.272L136.45 112.931C137.67 112.842 138.889 113.115 139.958 113.716C140.325 113.981 140.619 114.337 140.813 114.749C141.008 115.161 141.095 115.616 141.069 116.072C141.084 116.567 140.969 117.058 140.735 117.493C140.501 117.928 140.157 118.292 139.739 118.547C138.552 119.194 137.209 119.487 135.865 119.392L130.078 119.347ZM131.349 112.694H135.734C136.657 112.746 137.577 112.541 138.394 112.101C138.693 111.928 138.939 111.675 139.104 111.369C139.269 111.062 139.347 110.716 139.329 110.367C139.346 110.021 139.268 109.677 139.102 109.373C138.937 109.069 138.692 108.818 138.394 108.648C137.573 108.221 136.655 108.021 135.734 108.07H131.349V112.694ZM131.349 118.384H135.909C136.915 118.455 137.922 118.261 138.832 117.821C139.149 117.646 139.41 117.383 139.583 117.062C139.757 116.742 139.836 116.378 139.812 116.013C139.826 115.647 139.745 115.285 139.575 114.962C139.406 114.639 139.154 114.367 138.847 114.175C137.985 113.731 137.019 113.536 136.055 113.612H131.276L131.349 118.384Z" fill="#2B2F3C"/>
<path d="M145.614 119.347V107.107H146.915V117.48L156.561 107.107H157.701V119.347H156.386V108.974L146.739 119.347H145.614Z" fill="#2B2F3C"/>
<path d="M169.963 119.347V107.107H171.249V119.347H169.963ZM170.84 113.671V112.619H175.093V113.627L170.84 113.671ZM175.225 113.345L174.041 113.153L179.58 107.107H181.042L175.225 113.345ZM179.873 119.347L174.026 113.227L175.123 112.664L181.393 119.347H179.873Z" fill="#2B2F3C"/>
<path d="M196.827 119.451C195.611 119.474 194.408 119.199 193.319 118.65C192.322 118.154 191.478 117.39 190.878 116.442C190.287 115.474 189.973 114.358 189.973 113.219C189.973 112.081 190.287 110.965 190.878 109.996C191.47 109.045 192.317 108.285 193.319 107.803C194.328 107.327 195.421 107.061 196.534 107.023C197.646 106.985 198.755 107.175 199.794 107.581C200.655 107.93 201.404 108.515 201.957 109.27L201.007 109.893C200.528 109.278 199.898 108.803 199.18 108.515C198.347 108.189 197.457 108.039 196.564 108.075C195.672 108.11 194.796 108.331 193.991 108.722C193.179 109.117 192.494 109.739 192.018 110.515C191.53 111.332 191.282 112.272 191.302 113.227C191.277 114.182 191.526 115.124 192.018 115.939C192.493 116.719 193.178 117.346 193.991 117.746C194.799 118.131 195.675 118.346 196.566 118.379C197.458 118.412 198.346 118.262 199.18 117.939C199.898 117.651 200.528 117.175 201.007 116.561L201.957 117.198C201.396 117.945 200.649 118.528 199.794 118.887C198.85 119.27 197.842 119.461 196.827 119.451Z" fill="#2B2F3C"/>
<path d="M205.8 119.347V107.107H211.501C212.725 107.043 213.943 107.32 215.023 107.907C215.43 108.136 215.767 108.474 215.996 108.885C216.226 109.295 216.339 109.762 216.324 110.234C216.339 110.692 216.23 111.146 216.008 111.546C215.787 111.946 215.461 112.276 215.067 112.501C214.071 113.057 212.943 113.323 211.807 113.272L212.173 112.931C213.392 112.842 214.611 113.115 215.681 113.716C216.047 113.981 216.342 114.337 216.536 114.749C216.73 115.161 216.818 115.616 216.791 116.072C216.806 116.553 216.699 117.029 216.478 117.455C216.258 117.881 215.933 118.242 215.534 118.502C214.348 119.15 213.005 119.443 211.661 119.347H205.8ZM207.072 112.694H211.457C212.38 112.746 213.3 112.541 214.117 112.101C214.416 111.928 214.662 111.675 214.827 111.369C214.992 111.062 215.07 110.716 215.052 110.367C215.069 110.021 214.99 109.677 214.825 109.373C214.66 109.069 214.415 108.818 214.117 108.648C213.296 108.221 212.378 108.021 211.457 108.07H207.072V112.694ZM207.072 118.384H211.632C212.638 118.455 213.645 118.261 214.555 117.821C214.872 117.646 215.132 117.383 215.306 117.062C215.479 116.742 215.559 116.378 215.534 116.013C215.56 115.657 215.494 115.301 215.343 114.979C215.191 114.657 214.96 114.38 214.672 114.175C213.81 113.731 212.844 113.537 211.881 113.612H207.116L207.072 118.384Z" fill="#2B2F3C"/>
<path d="M226.803 119.451C225.601 119.477 224.411 119.202 223.339 118.651C222.359 118.141 221.528 117.379 220.927 116.443C220.325 115.483 220.014 114.365 220.036 113.227C220.011 112.089 220.321 110.97 220.927 110.012C221.524 109.076 222.357 108.319 223.339 107.819C224.411 107.267 225.601 106.992 226.803 107.018C228.009 106.997 229.202 107.271 230.281 107.819C231.264 108.319 232.096 109.076 232.693 110.012C233.288 110.974 233.593 112.092 233.57 113.227C233.587 114.362 233.283 115.478 232.693 116.443C232.093 117.379 231.261 118.141 230.281 118.651C229.202 119.198 228.009 119.472 226.803 119.451ZM226.803 118.384C227.771 118.403 228.728 118.185 229.594 117.747C230.405 117.341 231.085 116.708 231.553 115.924C232.019 115.105 232.256 114.173 232.24 113.227C232.256 112.277 232.019 111.34 231.553 110.515C231.078 109.744 230.4 109.123 229.594 108.722C228.725 108.294 227.77 108.071 226.803 108.071C225.836 108.071 224.881 108.294 224.011 108.722C223.196 109.151 222.512 109.799 222.035 110.594C221.558 111.39 221.306 112.303 221.306 113.235C221.306 114.166 221.558 115.079 222.035 115.875C222.512 116.671 223.196 117.318 224.011 117.747C224.877 118.185 225.835 118.403 226.803 118.384Z" fill="#2B2F3C"/>
<path d="M243.391 119.451C242.143 119.477 240.906 119.203 239.781 118.651C238.776 118.155 237.923 117.392 237.311 116.443C236.742 115.47 236.441 114.359 236.441 113.227C236.441 112.095 236.742 110.985 237.311 110.012C237.867 109.073 238.672 108.313 239.635 107.818C240.658 107.275 241.799 107 242.953 107.018C244.1 106.997 245.234 107.262 246.256 107.789C247.169 108.298 247.931 109.045 248.463 109.952C249.034 110.929 249.328 112.047 249.311 113.183C249.311 113.183 249.311 113.286 249.311 113.331C249.304 113.39 249.304 113.45 249.311 113.509H237.355V112.62H248.609L248.083 113.079C248.112 112.173 247.884 111.278 247.425 110.501C246.974 109.751 246.333 109.137 245.569 108.722C244.736 108.294 243.814 108.071 242.88 108.071C241.945 108.071 241.024 108.294 240.191 108.722C239.424 109.133 238.782 109.748 238.335 110.501C237.878 111.285 237.645 112.183 237.662 113.094V113.301C237.644 114.246 237.903 115.174 238.408 115.969C238.905 116.751 239.609 117.378 240.439 117.776C241.353 118.213 242.353 118.431 243.362 118.414C244.189 118.423 245.011 118.283 245.788 117.999C246.52 117.733 247.177 117.29 247.703 116.709L248.448 117.48C247.835 118.146 247.073 118.654 246.227 118.962C245.316 119.287 244.357 119.453 243.391 119.451Z" fill="#2B2F3C"/>
<path d="M253.593 119.347V107.107H254.865L261.266 116.798H260.696L267.127 107.107H268.311V119.347H267.127V108.515L267.39 108.604L261.237 117.776H260.638L254.47 108.544H254.777V119.406L253.593 119.347Z" fill="#2B2F3C"/>
<path d="M273.762 124C273.167 124 272.575 123.905 272.009 123.718C271.469 123.55 270.971 123.267 270.547 122.888L271.205 121.999C271.525 122.319 271.909 122.566 272.33 122.725C272.797 122.902 273.294 122.983 273.792 122.963C274.372 122.973 274.941 122.808 275.429 122.488C276.014 122.047 276.477 121.46 276.773 120.784L277.709 118.902L277.884 118.695L283.613 107.107H285.002L278.045 121.021C277.744 121.669 277.345 122.264 276.861 122.785C276.474 123.192 276.005 123.51 275.487 123.718C274.932 123.912 274.349 124.007 273.762 124ZM277.694 119.658L271.409 107.107H272.798L278.498 118.621L277.694 119.658Z" fill="#2B2F3C"/>
<path d="M297.206 119.347V107.818L297.571 108.159H291.915V107.107H303.797V108.174H298.156L298.521 107.833V119.362L297.206 119.347Z" fill="#2B2F3C"/>
<path d="M311.543 119.451C310.295 119.477 309.057 119.202 307.933 118.65C306.928 118.154 306.075 117.391 305.463 116.442C304.86 115.483 304.55 114.364 304.572 113.227C304.545 112.116 304.827 111.02 305.385 110.063C305.943 109.107 306.755 108.329 307.729 107.818C308.758 107.302 309.891 107.034 311.039 107.034C312.187 107.034 313.32 107.302 314.35 107.818C315.3 108.312 316.098 109.06 316.659 109.982C317.237 110.956 317.531 112.076 317.507 113.212C317.514 113.261 317.514 113.311 317.507 113.36C317.507 113.36 317.507 113.479 317.507 113.538H305.463V112.619H316.717L316.206 113.079C316.235 112.173 316.006 111.278 315.548 110.5C315.093 109.754 314.453 109.141 313.692 108.722C312.858 108.294 311.937 108.071 311.003 108.071C310.068 108.071 309.147 108.294 308.313 108.722C307.547 109.133 306.905 109.747 306.457 110.5C306.001 111.285 305.768 112.183 305.785 113.094V113.301C305.769 114.243 306.023 115.169 306.516 115.968C307.019 116.752 307.728 117.378 308.562 117.776C309.475 118.213 310.475 118.431 311.485 118.413C312.311 118.422 313.133 118.281 313.911 117.998C314.639 117.732 315.291 117.29 315.811 116.709L316.571 117.48C315.955 118.143 315.194 118.65 314.35 118.962C313.448 119.284 312.499 119.449 311.543 119.451Z" fill="#2B2F3C"/>
<path d="M318.72 119.302L318.851 118.295H319.187C319.284 118.309 319.383 118.309 319.48 118.295C319.752 118.316 320.025 118.274 320.278 118.171C320.532 118.068 320.759 117.908 320.941 117.702C321.318 117.235 321.588 116.688 321.73 116.102C321.918 115.352 322.05 114.589 322.125 113.82C322.125 112.975 322.257 112.116 322.315 111.241L322.549 107.018H332.034V119.258H330.734V107.7L331.099 108.07H323.382L323.718 107.67L323.499 111.33C323.499 112.397 323.338 113.42 323.221 114.383C323.12 115.257 322.939 116.12 322.68 116.961C322.481 117.63 322.125 118.24 321.643 118.739C321.168 119.175 320.543 119.404 319.904 119.377H319.363L318.72 119.302Z" fill="#2B2F3C"/>
<path d="M337.427 124C336.832 124 336.24 123.905 335.674 123.718C335.16 123.541 334.687 123.258 334.285 122.888L334.928 121.999C335.257 122.316 335.644 122.563 336.068 122.725C336.507 122.893 336.973 122.974 337.442 122.963C338.027 122.976 338.602 122.81 339.094 122.488C339.678 122.05 340.138 121.462 340.424 120.784L341.359 118.902L341.549 118.695L347.278 107.107H348.594L341.651 121.021C341.351 121.669 340.952 122.264 340.467 122.785C340.078 123.195 339.604 123.514 339.079 123.718C338.548 123.906 337.99 124.002 337.427 124ZM341.344 119.658L335.06 107.107H336.434L342.148 118.621L341.344 119.658Z" fill="#2B2F3C"/>
</g>
<defs>
<clipPath id="clip0_30_543">
<rect width="378" height="124" fill="white"/>
</clipPath>
</defs>
</svg>
