<svg width="146" height="32" viewBox="0 0 146 32" fill="none" xmlns="http://www.w3.org/2000/svg">
<g clip-path="url(#clip0_30_621)">
<path d="M35.6829 31.7592V30.5666L39.4369 29.7547V2.23972L35.6829 1.43342V0.240768H46.657V1.43342L42.3385 2.23972V30.0906H55.3731L57.6311 21.6357H58.5964V31.7592H35.6829Z" fill="#2B2F3C"/>
<path d="M65.0996 31.7592V30.5666L68.8706 29.7547V2.23972L65.1109 1.42782V0.240768H75.5149V1.43342L71.7439 2.23972V29.7547L75.5036 30.5666V31.7592H65.0996Z" fill="#2B2F3C"/>
<path d="M28.0732 29.9451L15.8402 0H15.3434L15.383 6.33281L20.0797 18.1473L15.462 18.9872L20.7515 19.8215L24.799 29.9451L20.7063 30.5666V31.7648H30.9635V30.5666L28.0732 29.9451Z" fill="#2B2F3C"/>
<path d="M5.58303 29.6147L7.49673 21.5741L3.90078 29.6147L0 30.8073V31.7648H9.57978V30.8073L5.58303 29.6147Z" fill="#2B2F3C"/>
<path d="M143.11 29.9451L130.877 0H130.38L130.419 6.33281L135.116 18.1473L130.493 18.9872L135.788 19.8215L139.836 29.9451L135.743 30.5666V31.7648H146V30.5666L143.11 29.9451Z" fill="#2B2F3C"/>
<path d="M120.619 29.6147L122.533 21.5741L118.937 29.6147L115.036 30.8073V31.7648H124.616V30.8073L120.619 29.6147Z" fill="#2B2F3C"/>
<path d="M87.5842 29.6147L86.7939 21.0534L85.9019 29.6147L82.0012 30.8073V31.7648H91.5866V30.8073L87.5842 29.6147Z" fill="#2B2F3C"/>
<path d="M102.521 0.240768V1.43342L106.665 2.24532V26.6023L87.0648 0.240768L87.2229 5.28574L107.432 32H108.494V2.24532L112.248 1.43342V0.240768H102.521Z" fill="#2B2F3C"/>
</g>
<defs>
<clipPath id="clip0_30_621">
<rect width="146" height="32" fill="white"/>
</clipPath>
</defs>
</svg>
