<svg width="140" height="80" viewBox="0 0 140 80" fill="none" xmlns="http://www.w3.org/2000/svg">
<circle cx="40" cy="40" r="38.5" stroke="#666B7D" stroke-width="3"/>
<path d="M52.4533 26.6667H55.9733L51.2799 53.3333H47.7599L48.5599 48.8C45.6799 52.2489 41.8221 53.9733 36.9866 53.9733C33.2533 53.9733 30.2488 52.5333 27.9733 49.6533C25.6977 46.7733 24.8977 43.3778 25.5733 39.4667C26.3199 35.2 28.1511 31.8933 31.0666 29.5467C34.0177 27.2 37.2711 26.0267 40.8266 26.0267C43.1377 26.0267 45.2533 26.5778 47.1733 27.68C49.0933 28.7467 50.5155 30.2933 51.4399 32.32L52.4533 26.6667ZM37.8399 50.56C40.7555 50.56 43.3688 49.6355 45.6799 47.7867C47.9911 45.9022 49.4311 43.52 49.9999 40.64L50.1066 40C50.6044 36.7289 49.9288 34.1511 48.0799 32.2667C46.2666 30.3822 43.9377 29.44 41.0933 29.44C38.3199 29.44 35.7599 30.3467 33.4133 32.16C31.1021 33.9733 29.6622 36.4978 29.0933 39.7333C28.5955 42.72 29.1822 45.28 30.8533 47.4133C32.5244 49.5111 34.8533 50.56 37.8399 50.56Z" fill="#666B7D"/>
<circle cx="100" cy="40" r="40" fill="#FF8FCC"/>
<path d="M109.133 31.9167L104.4 27.1833C104.245 27.0271 104.061 26.9031 103.858 26.8185C103.655 26.7339 103.437 26.6903 103.217 26.6903C102.997 26.6903 102.779 26.7339 102.576 26.8185C102.373 26.9031 102.188 27.0271 102.033 27.1833C101.723 27.4956 101.549 27.918 101.549 28.3583C101.549 28.7986 101.723 29.2211 102.033 29.5333L105.567 33.0667L92.0667 46.5667L88.5334 43.0333C88.2211 42.7229 87.7987 42.5487 87.3584 42.5487C86.918 42.5487 86.4956 42.7229 86.1834 43.0333C86.0271 43.1883 85.9032 43.3726 85.8185 43.5757C85.7339 43.7788 85.6904 43.9966 85.6904 44.2167C85.6904 44.4367 85.7339 44.6545 85.8185 44.8576C85.9032 45.0607 86.0271 45.2451 86.1834 45.4L90.8667 50.0833L95.55 54.7667C95.7044 54.9241 95.8885 55.0494 96.0916 55.1353C96.2947 55.2211 96.5128 55.2657 96.7334 55.2667C97.0644 55.2686 97.3885 55.1719 97.6644 54.9889C97.9402 54.8059 98.1554 54.5449 98.2823 54.2391C98.4093 53.9334 98.4423 53.5968 98.3772 53.2722C98.312 52.9476 98.1517 52.6498 97.9167 52.4167L94.4334 48.9333L107.933 35.4333L111.467 38.9667C111.622 39.121 111.806 39.2431 112.009 39.3262C112.212 39.4093 112.429 39.4517 112.648 39.4509C112.867 39.4501 113.083 39.4062 113.285 39.3217C113.487 39.2372 113.671 39.1137 113.825 38.9583C113.979 38.8029 114.102 38.6187 114.185 38.416C114.268 38.2134 114.31 37.9964 114.309 37.7774C114.309 37.5584 114.265 37.3417 114.18 37.1397C114.096 36.9377 113.972 36.7543 113.817 36.6L109.133 31.9167ZM86.1834 50.1C85.8695 49.7862 85.4439 49.6098 85 49.6098C84.5562 49.6098 84.1305 49.7862 83.8167 50.1C83.5029 50.4138 83.3265 50.8395 83.3265 51.2833C83.3265 51.7272 83.5029 52.1528 83.8167 52.4667L88.5334 57.1833C88.6891 57.3378 88.8738 57.46 89.0768 57.5429C89.2799 57.6259 89.4973 57.6679 89.7167 57.6667C89.936 57.6679 90.1535 57.6259 90.3565 57.5429C90.5596 57.46 90.7443 57.3378 90.9 57.1833C91.0562 57.0284 91.1802 56.8441 91.2648 56.641C91.3495 56.4379 91.393 56.22 91.393 56C91.393 55.78 91.3495 55.5621 91.2648 55.359C91.1802 55.1559 91.0562 54.9716 90.9 54.8167L86.1834 50.1ZM116.183 29.5333L111.467 24.8167C111.311 24.6613 111.127 24.538 110.924 24.4539C110.721 24.3698 110.503 24.3265 110.283 24.3265C110.064 24.3265 109.846 24.3698 109.643 24.4539C109.44 24.538 109.255 24.6613 109.1 24.8167C108.945 24.9721 108.821 25.1565 108.737 25.3596C108.653 25.5626 108.61 25.7802 108.61 26C108.61 26.2198 108.653 26.4374 108.737 26.6404C108.821 26.8434 108.945 27.0279 109.1 27.1833L113.817 31.9C113.972 32.0562 114.156 32.1802 114.359 32.2648C114.562 32.3494 114.78 32.393 115 32.393C115.22 32.393 115.438 32.3494 115.641 32.2648C115.844 32.1802 116.028 32.0562 116.183 31.9C116.34 31.7451 116.464 31.5607 116.548 31.3576C116.633 31.1545 116.676 30.9367 116.676 30.7167C116.676 30.4966 116.633 30.2788 116.548 30.0757C116.464 29.8726 116.34 29.6883 116.183 29.5333Z" fill="white"/>
</svg>
