<svg width="200" height="200" viewBox="0 0 200 200" fill="none" xmlns="http://www.w3.org/2000/svg">
  <mask id="mask0_30_458" style="mask-type:luminance" maskUnits="userSpaceOnUse" x="24" y="24" width="152" height="152">
    <path d="M100 100C100 271 271 100 100 100C-71 100 100 271 100 100C100 -71 -71 100 100 100C271 100 100 -71 100 100Z"
          fill="#666B7D"/>
  </mask>
  <g mask="url(#mask0_30_458)">
    <path
      d="M96 100C96 121.673 98.7045 138.213 103.264 150.489C107.829 162.78 114.329 170.975 121.989 175.571C137.52 184.89 155.537 178.37 166.953 166.954C178.369 155.537 184.889 137.521 175.57 121.989C170.975 114.33 162.78 107.83 150.488 103.264C138.213 98.7046 121.673 96.0001 100 96.0001V104C121.077 104 136.599 106.64 147.703 110.764C158.79 114.882 165.29 120.405 168.71 126.105C175.423 137.292 171.255 151.338 161.296 161.297C151.338 171.256 137.292 175.423 126.105 168.711C120.405 165.291 114.881 158.79 110.763 147.703C106.639 136.6 104 121.077 104 100H96ZM100 96.0001C78.327 96.0001 61.787 98.7046 49.5115 103.264C37.2198 107.83 29.025 114.33 24.4294 121.989C15.1105 137.521 21.6303 155.537 33.0465 166.954C44.4628 178.37 62.4795 184.89 78.011 175.571C85.6705 170.975 92.1705 162.78 96.736 150.489C101.295 138.213 104 121.673 104 100H96C96 121.077 93.3605 136.6 89.2365 147.703C85.1185 158.79 79.595 165.291 73.895 168.711C62.708 175.423 48.6621 171.256 38.7034 161.297C28.7447 151.338 24.577 137.292 31.2893 126.105C34.7093 120.405 41.2098 114.882 52.297 110.764C63.4005 106.64 78.923 104 100 104V96.0001ZM104 100C104 78.3271 101.295 61.7871 96.736 49.5117C92.1705 37.2199 85.6705 29.0252 78.011 24.4295C62.4795 15.1106 44.4628 21.6304 33.0465 33.0467C21.6303 44.463 15.1105 62.4796 24.4294 78.0111C29.025 85.6706 37.2198 92.1706 49.5115 96.7361C61.787 101.296 78.327 104 100 104V96.0001C78.923 96.0001 63.4005 93.3606 52.297 89.2366C41.2098 85.1186 34.7093 79.5951 31.2893 73.8951C24.577 62.7081 28.7447 48.6623 38.7034 38.7036C48.6621 28.7448 62.708 24.5771 73.895 31.2895C79.595 34.7095 85.1185 41.21 89.2365 52.2971C93.3605 63.4006 96 78.9231 96 100H104ZM100 104C121.673 104 138.213 101.296 150.488 96.7361C162.78 92.1706 170.975 85.6706 175.57 78.0111C184.889 62.4796 178.369 44.463 166.953 33.0467C155.537 21.6304 137.52 15.1106 121.989 24.4295C114.329 29.0252 107.829 37.2199 103.264 49.5117C98.7045 61.7871 96 78.3271 96 100H104C104 78.9231 106.639 63.4006 110.763 52.2971C114.881 41.21 120.405 34.7095 126.105 31.2895C137.292 24.5771 151.338 28.7448 161.296 38.7036C171.255 48.6623 175.423 62.7081 168.71 73.8951C165.29 79.5951 158.79 85.1186 147.703 89.2366C136.599 93.3606 121.077 96.0001 100 96.0001V104Z"
      fill="#666B7D"/>
  </g>
</svg>
