<svg width="200" height="200" viewBox="0 0 200 200" fill="none" xmlns="http://www.w3.org/2000/svg">
<g clip-path="url(#clip0_302_7047)">
<g clip-path="url(#clip1_302_7047)">
<path fill-rule="evenodd" clip-rule="evenodd" d="M97.4896 69.9804L97.3533 69.9782C88.6371 69.832 81.3206 68.9626 75.2445 67.524C72.7807 66.9406 70.5208 66.2637 68.4542 65.5034C60.7719 62.6771 55.6502 58.6533 52.7779 53.9117C46.9536 44.297 51.0285 33.1438 58.1636 26.0766C65.2988 19.0094 76.5592 14.9733 86.2664 20.7422C91.0536 23.5871 95.1161 28.66 97.9695 36.2692C98.7371 38.3161 99.4206 40.5544 100.01 42.9948C100.598 40.5544 101.282 38.3161 102.05 36.2692C104.903 28.66 108.965 23.5871 113.753 20.7422C123.46 14.9733 134.72 19.0094 141.855 26.0766C148.99 33.1438 153.065 44.297 147.241 53.9117C144.369 58.6533 139.247 62.6771 131.565 65.5034C129.498 66.2637 127.238 66.9406 124.775 67.524C118.667 68.9701 111.306 69.841 102.529 69.9804L102.53 70.0206L102.49 70.0199C101.677 70.0068 100.85 70.0002 100.01 70.0002C99.1688 70.0002 98.3421 70.0068 97.5295 70.0199L97.4889 70.0206L97.4894 69.9909L97.4896 69.9804ZM102.53 65.0273C114.43 64.8319 123.335 63.2481 129.824 60.8608C136.753 58.3116 140.816 54.8923 142.954 51.3637C147.149 44.4384 144.544 35.7434 138.32 29.5785C132.096 23.4135 123.317 20.8335 116.325 24.9888C112.763 27.1059 109.31 31.1301 106.737 37.9935C104.326 44.4211 102.728 53.2408 102.53 65.0273ZM97.4889 65.0273C97.2915 53.2408 95.6926 44.4211 93.2823 37.9935C90.7086 31.1301 87.2564 27.1059 83.6939 24.9888C76.702 20.8335 67.9234 23.4135 61.6992 29.5785C55.475 35.7434 52.8701 44.4384 57.0654 51.3637C59.2029 54.8923 63.2657 58.3116 70.1952 60.8608C76.6845 63.2481 85.589 64.8319 97.4889 65.0273Z" fill="#DADDDA"/>
</g>
<path d="M100 84.5001L46.2601 138.24M100 84.5001L153.74 138.24M100 84.5001L100 180.667M100 84.5001C135.632 84.5001 155.609 84.5001 191.24 84.5001M100 84.5001L8.24048 84.5001" stroke="#666B7D" stroke-width="4" stroke-linecap="round" stroke-linejoin="round"/>
</g>
<defs>
<clipPath id="clip0_302_7047">
<rect width="200" height="200" fill="white"/>
</clipPath>
<clipPath id="clip1_302_7047">
<rect width="100" height="52" fill="white" transform="translate(50 18)"/>
</clipPath>
</defs>
</svg>
