<svg width="22" height="22" viewBox="0 0 22 22" fill="none" xmlns="http://www.w3.org/2000/svg">
<path d="M21.36 1.585C21.1824 1.15739 20.8426 0.817581 20.415 0.64C20.2046 0.550328 19.9787 0.502765 19.75 0.5H2.25002C1.78589 0.5 1.34077 0.684375 1.01258 1.01256C0.68439 1.34075 0.500015 1.78587 0.500015 2.25C0.500015 2.71413 0.68439 3.15925 1.01258 3.48744C1.34077 3.81563 1.78589 4 2.25002 4H15.5325L1.00752 18.5075C0.84349 18.6702 0.713301 18.8637 0.624456 19.077C0.535611 19.2902 0.489868 19.519 0.489868 19.75C0.489868 19.981 0.535611 20.2098 0.624456 20.423C0.713301 20.6363 0.84349 20.8298 1.00752 20.9925C1.1702 21.1565 1.36375 21.2867 1.57701 21.3756C1.79026 21.4644 2.01899 21.5101 2.25002 21.5101C2.48104 21.5101 2.70977 21.4644 2.92302 21.3756C3.13628 21.2867 3.32983 21.1565 3.49252 20.9925L18 6.4675V19.75C18 20.2141 18.1844 20.6593 18.5126 20.9874C18.8408 21.3156 19.2859 21.5 19.75 21.5C20.2141 21.5 20.6593 21.3156 20.9875 20.9874C21.3156 20.6593 21.5 20.2141 21.5 19.75V2.25C21.4972 2.02131 21.4497 1.79539 21.36 1.585Z" fill="#666B7D"/>
</svg>
