<svg width="48" height="48" viewBox="0 0 48 48" fill="none" xmlns="http://www.w3.org/2000/svg">
<circle cx="24" cy="24" r="24" fill="#FF8FCC"/>
<path d="M24 19C23.0111 19 22.0444 19.2932 21.2221 19.8427C20.3999 20.3921 19.759 21.173 19.3806 22.0866C19.0022 23.0002 18.9031 24.0055 19.0961 24.9755C19.289 25.9454 19.7652 26.8363 20.4645 27.5355C21.1637 28.2348 22.0546 28.711 23.0245 28.9039C23.9945 29.0969 24.9998 28.9978 25.9134 28.6194C26.827 28.241 27.6079 27.6001 28.1573 26.7779C28.7068 25.9556 29 24.9889 29 24C29 22.6739 28.4732 21.4021 27.5355 20.4645C26.5979 19.5268 25.3261 19 24 19ZM24 27C23.4067 27 22.8266 26.8241 22.3333 26.4944C21.8399 26.1648 21.4554 25.6962 21.2284 25.1481C21.0013 24.5999 20.9419 23.9967 21.0576 23.4147C21.1734 22.8328 21.4591 22.2982 21.8787 21.8787C22.2982 21.4591 22.8328 21.1734 23.4147 21.0576C23.9967 20.9419 24.5999 21.0013 25.1481 21.2284C25.6962 21.4554 26.1648 21.8399 26.4944 22.3333C26.8241 22.8266 27 23.4067 27 24C27 24.7956 26.6839 25.5587 26.1213 26.1213C25.5587 26.6839 24.7956 27 24 27ZM29 18C28.8022 18 28.6089 18.0586 28.4444 18.1685C28.28 18.2784 28.1518 18.4346 28.0761 18.6173C28.0004 18.8 27.9806 19.0011 28.0192 19.1951C28.0578 19.3891 28.153 19.5673 28.2929 19.7071C28.4327 19.847 28.6109 19.9422 28.8049 19.9808C28.9989 20.0194 29.2 19.9996 29.3827 19.9239C29.5654 19.8482 29.7216 19.72 29.8315 19.5556C29.9414 19.3911 30 19.1978 30 19C30 18.7348 29.8946 18.4804 29.7071 18.2929C29.5196 18.1054 29.2652 18 29 18ZM33.94 20.24C33.9234 19.3854 33.7611 18.5399 33.46 17.74C33.1808 17.0121 32.7516 16.351 32.2003 15.7997C31.649 15.2484 30.9879 14.8192 30.26 14.54C29.4601 14.2389 28.6146 14.0766 27.76 14.06C26.79 14 26.47 14 24 14C21.53 14 21.21 14 20.24 14.06C19.3854 14.0766 18.5399 14.2389 17.74 14.54C17.0121 14.8192 16.351 15.2484 15.7997 15.7997C15.2484 16.351 14.8192 17.0121 14.54 17.74C14.2389 18.5399 14.0766 19.3854 14.06 20.24C14 21.22 14 21.54 14 24C14 26.46 14 26.78 14.06 27.76C14.0766 28.6146 14.2389 29.4601 14.54 30.26C14.8192 30.9879 15.2484 31.649 15.7997 32.2003C16.351 32.7516 17.0121 33.1808 17.74 33.46C18.5399 33.7611 19.3854 33.9234 20.24 33.94C21.24 33.94 21.53 34 24 34C26.47 34 26.79 34 27.76 33.94C28.6146 33.9234 29.4601 33.7611 30.26 33.46C30.9879 33.1808 31.649 32.7516 32.2003 32.2003C32.7516 31.649 33.1808 30.9879 33.46 30.26C33.7611 29.4601 33.9234 28.6146 33.94 27.76C33.94 26.76 34 26.46 34 24C34 21.54 34 21.22 33.94 20.24ZM31.94 27.67C31.9225 28.3046 31.8043 28.9324 31.59 29.53C31.4128 30.0023 31.1327 30.4293 30.77 30.78C30.4214 31.1428 29.9936 31.4201 29.52 31.59C28.921 31.8131 28.289 31.9348 27.65 31.95C26.71 31.95 26.42 32 23.99 32C21.56 32 21.28 32 20.34 32C19.702 31.9835 19.0708 31.8654 18.47 31.65C17.9977 31.4728 17.5707 31.1927 17.22 30.83C16.8572 30.4814 16.5799 30.0536 16.41 29.58C16.1878 28.9842 16.0661 28.3557 16.05 27.72C16.05 26.72 16.05 26.47 16.05 24.05C16.05 21.63 16.05 21.34 16.05 20.38C16.0672 19.7412 16.1888 19.1095 16.41 18.51C16.5826 18.0406 16.8595 17.6166 17.22 17.27C17.5686 16.9072 17.9964 16.6299 18.47 16.46C19.069 16.2369 19.701 16.1152 20.34 16.1C21.28 16 21.57 16 24 16C26.43 16 26.72 16 27.66 16C28.3021 16.0163 28.9373 16.1379 29.54 16.36C30.0094 16.5326 30.4334 16.8095 30.78 17.17C31.1428 17.5186 31.4201 17.9464 31.59 18.42C31.8348 19.0286 31.9735 19.6746 32 20.33C32 21.33 32.05 21.58 32.05 24C32.05 26.42 32 26.71 32 27.67H31.94Z" fill="white"/>
</svg>
