<svg width="787" height="796" viewBox="0 0 787 796" fill="none" xmlns="http://www.w3.org/2000/svg">
<g opacity="0.64">
<g opacity="0.4" filter="url(#filter0_f_140_240)">
<ellipse cx="-41.2636" cy="-66.8282" rx="357.799" ry="330.371" transform="rotate(-47.4967 -41.2636 -66.8282)" fill="#FF8FCC"/>
</g>
<path opacity="0.2" fill-rule="evenodd" clip-rule="evenodd" d="M131.232 -867.591C475.534 -847.823 658.994 -499.754 752.166 -167.935C831.521 114.677 774.95 420.013 543.539 600.788C284.054 803.495 -70.6566 870.737 -345.746 689.741C-662.883 481.08 -867.588 108.279 -756.46 -254.551C-640.08 -634.534 -265.765 -890.384 131.232 -867.591Z" stroke="#FF8FCC"/>
<path fill-rule="evenodd" clip-rule="evenodd" d="M-1.11296 26.6935C7.16838 26.8788 14.594 21.9071 19.4224 15.3856C23.9503 9.27003 25.0762 1.43579 22.9464 -5.80217C20.9531 -12.5765 15.5272 -17.7388 8.85339 -20.5333C2.5311 -23.1806 -4.53845 -22.7528 -10.7756 -19.9223C-17.1076 -17.0487 -22.2751 -12.1041 -24.1201 -5.56948C-26.0653 1.32017 -24.6828 8.61573 -20.4922 14.4923C-15.8849 20.9531 -9.21591 26.5121 -1.11296 26.6935Z" stroke="#FF8FCC" stroke-width="4"/>
<path opacity="0.261538" d="M495.957 -586.048C402.771 -707.441 280.408 -792.709 120.863 -801.818C-246.22 -822.844 -592.253 -586.247 -700.036 -234.997C-802.938 100.375 -614.085 445.06 -321.195 638.2C-194.088 722.24 -48.3522 748.871 95.6729 731.07C239.691 713.265 381.972 651.002 502.221 557.241C716.344 390.157 768.981 107.911 695.883 -153.482C653.045 -307.187 589.12 -464.686 495.957 -586.048Z" stroke="#FF8FCC" stroke-width="1.23077"/>
<path opacity="0.323077" d="M456.044 -537.315C370.221 -649.135 257.436 -727.711 110.496 -736.046C-226.671 -755.305 -544.425 -537.961 -643.61 -215.443C-738.285 92.471 -565.286 409.04 -296.64 586.659C-179.972 664.24 -45.9506 689.064 86.6001 672.986C219.136 656.901 350.15 599.862 460.905 513.694C657.741 360.3 706.443 101.145 639.603 -139.03C600.512 -280.529 541.82 -425.557 456.044 -537.315Z" stroke="#FF8FCC" stroke-width="1.46154"/>
<path opacity="0.384615" d="M416.131 -488.581C337.671 -590.828 234.465 -662.713 100.13 -670.274C-207.123 -687.765 -496.595 -489.674 -587.182 -195.889C-673.632 84.5671 -516.486 373.021 -272.086 535.119C-165.856 606.241 -43.5483 629.258 77.5278 614.902C198.582 600.537 318.328 548.722 419.589 470.147C599.138 330.444 643.906 94.3792 583.324 -124.578C547.98 -253.871 494.521 -386.427 416.131 -488.581Z" stroke="#FF8FCC" stroke-width="1.69231"/>
<path opacity="0.446154" d="M376.219 -439.847C305.122 -532.522 211.494 -597.716 89.7647 -604.502C-187.573 -620.226 -448.766 -441.388 -530.755 -176.335C-608.978 76.663 -467.685 337.001 -247.53 483.578C-151.739 548.241 -41.1454 569.451 68.4564 556.818C178.029 544.172 286.507 497.582 378.275 426.6C540.536 300.588 581.369 87.613 527.045 -110.126C495.448 -227.213 447.223 -347.297 376.219 -439.847Z" stroke="#FF8FCC" stroke-width="1.92308"/>
<path opacity="0.507692" d="M336.306 -391.113C272.572 -474.215 188.522 -532.718 79.3982 -538.729C-168.025 -552.686 -400.937 -393.101 -474.328 -156.781C-544.326 68.7593 -418.885 300.981 -222.976 432.038C-137.623 490.242 -38.7436 509.645 59.3838 498.735C157.475 487.808 254.685 446.442 336.959 383.053C481.932 270.732 518.832 80.8473 470.765 -95.6732C442.916 -200.555 399.924 -308.167 336.306 -391.113Z" stroke="#FF8FCC" stroke-width="2.15385"/>
<path opacity="0.569231" d="M296.394 -342.379C240.024 -415.909 165.552 -467.72 69.033 -472.956C-148.475 -485.146 -353.107 -344.815 -417.9 -137.227C-479.672 60.8557 -370.084 264.962 -198.42 380.497C-123.506 432.243 -36.3403 449.838 50.3126 440.651C136.922 431.445 222.865 395.303 295.644 339.506C423.33 240.876 456.296 74.0817 414.486 -81.2205C390.385 -173.897 352.626 -269.036 296.394 -342.379Z" stroke="#FF8FCC" stroke-width="2.38462"/>
<path opacity="0.630769" d="M256.488 -293.645C207.481 -357.602 142.587 -402.722 58.6737 -407.184C-128.919 -417.606 -305.27 -296.528 -361.466 -117.673C-415.012 52.9517 -321.277 228.942 -173.859 328.957C-109.383 374.244 -33.9312 390.032 41.2473 382.568C116.375 375.081 191.05 344.163 254.336 295.959C364.734 211.02 393.766 67.3158 358.214 -66.7682C337.859 -147.239 305.334 -229.906 256.488 -293.645Z" stroke="#FF8FCC" stroke-width="2.61538"/>
<path opacity="0.692308" d="M216.582 -244.911C174.938 -299.295 119.622 -337.724 48.3137 -341.411C-109.364 -350.066 -257.435 -248.241 -305.032 -98.1182C-350.352 45.0482 -272.47 192.923 -149.298 277.417C-95.2606 316.245 -31.5229 330.226 32.1812 324.485C95.8269 318.717 159.235 293.024 213.026 252.413C306.138 181.164 331.234 60.5503 301.94 -52.3153C285.333 -120.581 258.041 -190.776 216.582 -244.911Z" stroke="#FF8FCC" stroke-width="2.84615"/>
<path opacity="0.753846" d="M176.681 -196.176C142.4 -240.988 96.6617 -272.725 37.959 -275.638C-89.8038 -282.526 -209.594 -199.954 -248.594 -78.5634C-285.688 37.1451 -223.659 156.904 -124.732 225.877C-81.1328 258.246 -29.1091 270.42 23.1205 266.402C75.2845 262.354 127.425 241.885 171.722 208.866C247.546 151.309 268.709 53.7852 245.672 -37.8622C232.812 -93.9223 210.754 -151.645 176.681 -196.176Z" stroke="#FF8FCC" stroke-width="3.07692"/>
<path opacity="0.815385" d="M136.792 -147.442C109.874 -182.681 73.7144 -207.727 27.6171 -209.865C-70.2308 -214.985 -161.741 -151.667 -192.142 -59.0088C-221.011 29.2417 -174.834 120.885 -100.153 174.337C-66.9923 200.248 -26.6827 210.614 14.0725 208.319C54.7548 205.99 95.6273 190.746 130.431 165.32C188.967 121.453 206.196 47.0198 189.417 -23.4093C180.304 -67.2638 163.479 -112.514 136.792 -147.442Z" stroke="#FF8FCC" stroke-width="3.30769"/>
<path opacity="0.876923" d="M96.9294 -98.7056C77.3747 -124.372 50.7929 -142.727 17.3009 -144.091C-50.632 -147.444 -113.862 -103.378 -135.665 -39.4526C-156.307 21.3399 -125.984 84.867 -75.548 122.798C-52.8261 142.25 -24.2305 150.81 5.05031 150.237C34.2509 149.629 63.8557 139.608 89.1658 121.775C130.414 91.5989 143.709 40.256 133.187 -8.95482C127.822 -40.6038 116.23 -73.3823 96.9294 -98.7056Z" stroke="#FF8FCC" stroke-width="3.53846"/>
<path opacity="0.938462" d="M57.1613 -49.967C44.9697 -66.061 27.966 -77.7241 7.0793 -78.3134C-30.9386 -79.8993 -65.888 -55.0871 -79.0933 -19.8938C-91.5098 13.4407 -77.0394 48.852 -50.8487 71.2626C-38.5653 84.2559 -21.6837 91.0078 -3.87731 92.1584C13.8416 93.2693 32.1788 88.4729 47.9949 78.2328C71.9562 61.7475 81.3163 33.4949 77.0521 5.50231C75.4345 -13.9412 69.0754 -34.2475 57.1613 -49.967Z" stroke="#FF8FCC" stroke-width="3.76923"/>
</g>
<defs>
<filter id="filter0_f_140_240" x="-624.428" y="-652.384" width="1166.33" height="1171.11" filterUnits="userSpaceOnUse" color-interpolation-filters="sRGB">
<feFlood flood-opacity="0" result="BackgroundImageFix"/>
<feBlend mode="normal" in="SourceGraphic" in2="BackgroundImageFix" result="shape"/>
<feGaussianBlur stdDeviation="120" result="effect1_foregroundBlur_140_240"/>
</filter>
</defs>
</svg>
