<svg width="802" height="867" viewBox="0 0 802 867" fill="none" xmlns="http://www.w3.org/2000/svg">
<g opacity="0.64">
<g opacity="0.4" filter="url(#filter0_f_140_241)">
<ellipse cx="760.026" cy="817.152" rx="364.035" ry="336.128" transform="rotate(-47.4967 760.026 817.152)" fill="#FF8FCC"/>
</g>
<path opacity="0.2" fill-rule="evenodd" clip-rule="evenodd" d="M935.577 2.43369C1286.01 22.5459 1472.73 376.681 1567.56 714.283C1648.33 1001.82 1590.75 1312.48 1355.22 1496.4C1091.12 1702.64 730.095 1771.06 450.108 1586.91C127.327 1374.61 -81.0224 995.311 32.0832 626.157C150.536 239.553 531.513 -20.7568 935.577 2.43369Z" stroke="#FF8FCC"/>
<path fill-rule="evenodd" clip-rule="evenodd" d="M800.876 912.303C809.305 912.492 816.863 907.434 821.777 900.799C826.386 894.576 827.532 886.606 825.364 879.242C823.335 872.349 817.813 867.097 811.02 864.254C804.585 861.56 797.39 861.996 791.042 864.875C784.597 867.799 779.338 872.83 777.46 879.478C775.48 886.488 776.887 893.911 781.152 899.89C785.842 906.463 792.629 912.119 800.876 912.303Z" stroke="#FF8FCC" stroke-width="4"/>
<path opacity="0.261538" d="M1306.8 288.883C1211.95 165.374 1087.41 78.6206 925.025 69.3525C551.408 47.9601 199.215 288.681 89.5134 646.052C-15.2198 987.269 176.994 1337.96 475.098 1534.47C604.467 1619.97 752.798 1647.07 899.386 1628.96C1045.97 1610.84 1190.78 1547.49 1313.17 1452.1C1531.11 1282.1 1584.68 994.937 1510.28 728.988C1466.68 572.605 1401.62 412.36 1306.8 288.883Z" stroke="#FF8FCC" stroke-width="1.23077"/>
<path opacity="0.323077" d="M1266.17 338.466C1178.82 224.697 1064.03 144.751 914.471 136.271C571.302 116.676 247.892 337.808 146.942 665.947C50.5812 979.227 226.66 1301.31 500.087 1482.03C618.832 1560.96 755.24 1586.22 890.15 1569.86C1025.04 1553.49 1158.39 1495.46 1271.12 1407.79C1471.46 1251.72 1521.03 988.053 1453 743.692C1413.21 599.727 1353.47 452.171 1266.17 338.466Z" stroke="#FF8FCC" stroke-width="1.46154"/>
<path opacity="0.384615" d="M1225.55 388.049C1145.69 284.02 1040.65 210.882 903.922 203.19C591.2 185.393 296.574 386.937 204.375 685.842C116.387 971.186 276.33 1264.67 525.081 1429.59C633.201 1501.95 757.686 1525.37 880.917 1510.76C1004.13 1496.15 1126 1443.43 1229.07 1363.49C1411.81 1221.35 1457.38 981.169 1395.72 758.396C1359.74 626.849 1305.33 491.984 1225.55 388.049Z" stroke="#FF8FCC" stroke-width="1.69231"/>
<path opacity="0.446154" d="M1184.92 437.632C1112.56 343.342 1017.27 277.012 893.37 270.108C611.095 254.11 345.253 436.064 261.805 705.736C182.189 963.144 325.997 1228.02 550.071 1377.15C647.567 1442.94 760.129 1464.52 871.682 1451.67C983.205 1438.8 1093.61 1391.4 1187.02 1319.18C1352.16 1190.97 1393.73 974.285 1338.43 773.1C1306.27 653.972 1257.19 531.795 1184.92 437.632Z" stroke="#FF8FCC" stroke-width="1.92308"/>
<path opacity="0.507692" d="M1144.3 487.216C1079.43 402.665 993.887 343.143 882.82 337.027C630.993 322.827 393.935 485.193 319.238 725.631C247.994 955.102 375.667 1191.37 575.064 1324.71C661.936 1383.93 762.576 1403.67 862.45 1392.57C962.286 1381.45 1061.23 1339.37 1144.97 1274.87C1292.52 1160.59 1330.08 967.401 1281.15 787.804C1252.81 681.094 1209.05 571.608 1144.3 487.216Z" stroke="#FF8FCC" stroke-width="2.15385"/>
<path opacity="0.569231" d="M1103.68 536.799C1046.3 461.988 970.507 409.274 872.27 403.946C650.891 391.544 442.616 534.321 376.67 745.527C313.798 947.061 425.337 1154.72 600.056 1272.27C676.304 1324.92 765.021 1342.82 853.216 1333.48C941.367 1324.11 1028.84 1287.34 1102.92 1230.57C1232.87 1130.22 1266.43 960.518 1223.87 802.509C1199.34 708.217 1160.91 611.42 1103.68 536.799Z" stroke="#FF8FCC" stroke-width="2.38462"/>
<path opacity="0.630769" d="M1063.06 586.382C1013.18 521.31 947.133 475.404 861.726 470.865C670.794 460.261 491.303 583.449 434.108 765.421C379.609 939.019 475.012 1118.08 625.054 1219.83C690.678 1265.91 767.473 1281.97 843.989 1274.38C920.454 1266.76 996.459 1235.31 1060.87 1186.26C1173.23 1099.84 1202.78 953.634 1166.6 817.213C1145.88 735.34 1112.78 651.232 1063.06 586.382Z" stroke="#FF8FCC" stroke-width="2.61538"/>
<path opacity="0.692308" d="M1022.45 635.966C980.061 580.634 923.76 541.535 851.183 537.784C690.698 528.978 539.992 632.577 491.547 785.317C445.421 930.978 524.689 1081.43 650.054 1167.4C705.053 1206.9 769.925 1221.13 834.763 1215.28C899.542 1209.42 964.078 1183.28 1018.83 1141.96C1113.6 1069.47 1139.14 946.75 1109.32 831.918C1092.42 762.463 1064.64 691.044 1022.45 635.966Z" stroke="#FF8FCC" stroke-width="2.84615"/>
<path opacity="0.753846" d="M981.835 685.55C946.943 639.957 900.391 607.667 840.644 604.703C710.607 597.695 588.684 681.706 548.99 805.212C511.236 922.937 574.369 1044.78 675.057 1114.96C719.432 1147.89 772.382 1160.28 825.541 1156.19C878.634 1152.07 931.702 1131.25 976.788 1097.65C1053.96 1039.09 1075.5 939.867 1052.05 846.623C1038.97 789.586 1016.51 730.857 981.835 685.55Z" stroke="#FF8FCC" stroke-width="3.07692"/>
<path opacity="0.815385" d="M941.236 735.134C913.839 699.28 877.035 673.798 830.117 671.622C730.528 666.413 637.389 730.835 606.446 825.108C577.064 914.896 624.062 1008.14 700.073 1062.52C733.824 1088.88 774.851 1099.43 816.332 1097.09C857.738 1094.73 899.338 1079.21 934.762 1053.35C994.34 1008.71 1011.87 932.984 994.797 861.328C985.522 816.709 968.397 770.669 941.236 735.134Z" stroke="#FF8FCC" stroke-width="3.30769"/>
<path opacity="0.876923" d="M900.663 784.719C880.76 758.605 853.705 739.931 819.617 738.543C750.475 735.131 686.12 779.965 663.928 845.005C642.918 906.857 673.781 971.491 725.115 1010.08C748.242 1029.87 777.346 1038.58 807.148 1038C836.869 1037.38 867 1027.19 892.761 1009.04C934.744 978.34 948.275 926.102 937.566 876.034C932.105 843.833 920.307 810.484 900.663 784.719Z" stroke="#FF8FCC" stroke-width="3.53846"/>
<path opacity="0.938462" d="M860.186 834.307C847.778 817.932 830.471 806.066 809.213 805.466C770.518 803.853 734.947 829.098 721.506 864.904C708.869 898.82 723.597 934.848 750.254 957.649C762.756 970.869 779.938 977.738 798.061 978.909C816.096 980.039 834.759 975.159 850.857 964.741C875.245 947.968 884.771 919.223 880.431 890.743C878.785 870.961 872.313 850.3 860.186 834.307Z" stroke="#FF8FCC" stroke-width="3.76923"/>
</g>
<defs>
<filter id="filter0_f_140_241" x="170.883" y="225.574" width="1178.29" height="1183.16" filterUnits="userSpaceOnUse" color-interpolation-filters="sRGB">
<feFlood flood-opacity="0" result="BackgroundImageFix"/>
<feBlend mode="normal" in="SourceGraphic" in2="BackgroundImageFix" result="shape"/>
<feGaussianBlur stdDeviation="120" result="effect1_foregroundBlur_140_241"/>
</filter>
</defs>
</svg>
