<svg width="48" height="48" viewBox="0 0 48 48" fill="none" xmlns="http://www.w3.org/2000/svg">
<circle cx="24" cy="24" r="24" fill="#FF8FCC"/>
<path d="M34.2647 14.4277C33.98 14.1909 33.6364 14.0356 33.2704 13.9785C32.9045 13.9214 32.5299 13.9646 32.1866 14.1035L14.2657 21.3389C13.8824 21.4965 13.5562 21.767 13.3303 22.1145C13.1043 22.4619 12.9894 22.8698 13.0008 23.2841C13.0121 23.6984 13.1492 24.0994 13.3937 24.4339C13.6383 24.7685 13.9789 25.0207 14.3702 25.1572L17.9952 26.418L20.0157 33.0996C20.0431 33.1889 20.083 33.2738 20.134 33.352C20.1418 33.364 20.1527 33.3729 20.161 33.3846C20.22 33.4669 20.2913 33.5397 20.3724 33.6003C20.3955 33.6179 20.4175 33.6344 20.4422 33.65C20.5371 33.713 20.6423 33.7591 20.7529 33.7861L20.7648 33.7871L20.7715 33.79C20.838 33.8035 20.9057 33.8104 20.9736 33.8105C20.9802 33.8105 20.986 33.8074 20.9924 33.8073C21.0949 33.8055 21.1965 33.7878 21.2935 33.755C21.3161 33.7473 21.3355 33.7344 21.3574 33.7251C21.4297 33.6951 21.4983 33.6567 21.5617 33.6106C21.6124 33.5678 21.6631 33.5251 21.7139 33.4824L24.416 30.499L28.4463 33.6211C28.8011 33.8973 29.2379 34.0474 29.6875 34.0478C30.1587 34.0472 30.6154 33.8846 30.9809 33.5874C31.3465 33.2901 31.5987 32.8762 31.6954 32.415L34.958 16.3984C35.032 16.0379 35.0065 15.6641 34.8844 15.317C34.7623 14.9699 34.5481 14.6625 34.2647 14.4277ZM21.3702 26.7363C21.2315 26.8744 21.1367 27.0504 21.0977 27.2422L20.7882 28.7462L20.0041 26.1531L24.0694 24.0362L21.3702 26.7363ZM29.6719 32.04L24.9092 28.3505C24.71 28.1966 24.46 28.1233 24.2092 28.1454C23.9583 28.1675 23.725 28.2833 23.5557 28.4697L22.6903 29.4249L22.9961 27.9384L30.0791 20.8554C30.2482 20.6866 30.3512 20.4628 30.3695 20.2246C30.3878 19.9863 30.3201 19.7494 30.1788 19.5567C30.0375 19.3641 29.8319 19.2284 29.5992 19.1743C29.3664 19.1201 29.122 19.1511 28.9102 19.2617L18.7449 24.5543L15.0205 23.1914L32.999 15.999L29.6719 32.04Z" fill="white"/>
</svg>
